<?xml version="1.0" encoding="UTF-8" standalone="no"?>
<!-- Created with Inkscape (http://www.inkscape.org/) -->

<svg
   width="114.61108mm"
   height="130.57768mm"
   viewBox="0 0 114.61108 130.57768"
   version="1.1"
   id="svg5"
   inkscape:version="1.2.1 (9c6d41e410, 2022-07-14, custom)"
   sodipodi:docname="lonenote.lonenote.svg"
   inkscape:export-filename="lonenote.lonenote.png"
   inkscape:export-xdpi="25.4"
   inkscape:export-ydpi="25.4"
   xmlns:inkscape="http://www.inkscape.org/namespaces/inkscape"
   xmlns:sodipodi="http://sodipodi.sourceforge.net/DTD/sodipodi-0.dtd"
   xmlns="http://www.w3.org/2000/svg"
   xmlns:svg="http://www.w3.org/2000/svg">
  <sodipodi:namedview
     id="namedview7"
     pagecolor="#ffffff"
     bordercolor="#000000"
     borderopacity="0.25"
     inkscape:showpageshadow="2"
     inkscape:pageopacity="0.0"
     inkscape:pagecheckerboard="0"
     inkscape:deskcolor="#d1d1d1"
     inkscape:document-units="mm"
     showgrid="false"
     inkscape:zoom="0.84096521"
     inkscape:cx="68.96837"
     inkscape:cy="312.14133"
     inkscape:window-width="1730"
     inkscape:window-height="1159"
     inkscape:window-x="70"
     inkscape:window-y="0"
     inkscape:window-maximized="1"
     inkscape:current-layer="layer1" />
  <defs
     id="defs2">
    <linearGradient
       id="linearGradient4392"
       inkscape:swatch="solid">
      <stop
         style="stop-color:#000000;stop-opacity:1;"
         offset="0"
         id="stop4390" />
    </linearGradient>
  </defs>
  <g
     inkscape:label="图层 1"
     inkscape:groupmode="layer"
     id="layer1"
     transform="translate(-33.938893,-67.591131)">
    <path
       style="fill:none;fill-opacity:1;fill-rule:evenodd;stroke:#4a9797;stroke-width:9;stroke-linecap:round;stroke-dasharray:none;stroke-opacity:1"
       d="m 57.186586,98.482892 c 10.421109,-2.877336 20.330326,-7.155719 30.0321,-11.881146 0.490156,-0.238739 14.354024,-7.51822 15.398894,-8.089291 2.68523,-1.467596 5.3176,-3.030289 7.99722,-4.508087 1.06416,-0.586883 2.10156,-1.241502 3.2329,-1.685277 0.33001,-0.129448 1.11847,-0.350197 1.06348,0 -0.12071,0.768575 -0.77202,1.387893 -1.36124,1.89593 -3.81114,3.28608 -7.79952,6.362758 -11.78312,9.437502 -13.38106,10.328172 -16.249297,11.810783 -28.500735,21.782107 -12.341696,10.04479 -15.769156,13.60917 -28.330559,25.91101 -1.687201,1.65234 -2.995295,3.09218 -2.126922,3.49693 0.642728,0.29956 1.456327,0.18839 2.126922,-0.0421 5.207629,-1.79022 10.363295,-3.75402 15.398898,-5.9827 7.380427,-3.26647 14.526572,-7.03907 21.822192,-10.4908 8.34688,-3.94911 14.527014,-6.60737 23.183424,-10.19588 0.36582,-0.15165 15.25614,-7.45698 13.35704,-1.64313 -1.46558,4.48671 -12.18901,14.59747 -12.29359,14.70397 -3.59451,3.66064 -7.360721,7.14938 -11.102519,10.65932 -4.820756,4.52204 -27.355168,25.05124 -30.457481,27.8912 -2.431346,2.22573 -4.894988,4.41743 -7.27406,6.69895 -2.382718,2.28503 -4.691285,4.51433 -3.82846,5.09794 0.992195,0.67112 5.534303,-2.03534 6.678541,-2.73856 4.072768,-2.50305 8.065728,-5.13525 12.038348,-7.79438 26.236472,-17.56174 -5.476819,1.88656 43.261541,-28.52317 4.79072,-2.98911 18.38845,-11.24243 24.97005,-10.53292 0.60001,0.0647 -0.0149,1.29118 -0.38286,1.76952 -3.69574,4.80426 -9.29844,9.35553 -13.65483,13.35575 -8.95425,8.2222 -18.43723,17.08167 -26.884257,25.65822 -3.325704,3.3767 -9.182341,10.01261 -12.251058,14.28266 -0.851125,1.18432 -2.066118,2.3035 -2.254525,3.74971 -0.788937,6.05587 7.851711,0.48157 8.082285,0.3792 8.264275,-3.66926 15.795155,-8.8125 23.821495,-12.97658 3.81047,-1.97688 7.74742,-3.70102 11.65552,-5.47712 0.35263,-0.16026 6.9631,-3.1116 8.55022,-3.28627 3.2564,-0.35837 -1.78776,4.42801 -3.95608,6.82533 -5.28818,5.84664 -11.25237,11.0676 -16.4198,17.02122 -2.71584,3.12905 -6.24425,5.84396 -7.78453,9.69029 -0.47056,1.17508 2.54697,0.55427 3.78591,0.29494 1.59968,-0.33484 2.98379,-1.33491 4.46654,-2.02232 5.47943,-2.54033 11.18946,-5.81954 17.1855,-6.99387 3.83562,-0.75121 -0.67878,5.17691 2.72246,3.70758 2.28915,-0.98891 4.45236,-2.24703 6.67854,-3.37054"
       id="path4300" />
    <path
       id="path844"
       style="fill:#ffe680;fill-opacity:1;stroke:#000000;stroke-width:3;stroke-dasharray:none;stroke-dashoffset:0;stroke-opacity:1"
       d="m 142.22913,123.44892 a 16.221926,16.765362 0 0 1 -16.22194,16.76537 16.221926,16.765362 0 0 1 -16.22193,-16.76537 16.221926,16.765362 0 0 1 16.22193,-16.76537 16.221926,16.765362 0 0 1 16.22194,16.76537 z"
       inkscape:export-filename="path844.svg"
       inkscape:export-xdpi="96"
       inkscape:export-ydpi="96" />
    <path
       id="path844-3"
       style="fill:#ffffff;fill-opacity:1;stroke:#000000;stroke-width:3;stroke-dasharray:none;stroke-dashoffset:0;stroke-opacity:1"
       d="m 67.882763,143.44951 a 16.221926,16.765362 0 0 1 -16.221942,16.76537 16.221926,16.765362 0 0 1 -16.22193,-16.76537 16.221926,16.765362 0 0 1 16.22193,-16.76537 16.221926,16.765362 0 0 1 16.221942,16.76537 z" />
    <path
       id="path844-6"
       style="fill:#ffffff;fill-opacity:1;stroke:#000000;stroke-width:3;stroke-dasharray:none;stroke-dashoffset:0;stroke-opacity:1"
       d="m 132.24766,176.25946 a 16.221926,16.765362 0 0 1 -16.22194,16.76537 16.221926,16.765362 0 0 1 -16.221926,-16.76537 16.221926,16.765362 0 0 1 16.221926,-16.76537 16.221926,16.765362 0 0 1 16.22194,16.76537 z" />
    <path
       id="path844-7"
       style="fill:#ffffff;fill-opacity:1;stroke:#000000;stroke-width:3;stroke-dasharray:none;stroke-dashoffset:0;stroke-opacity:1"
       d="M 111.86921,89.453373 A 16.221926,16.765362 0 0 1 95.647272,106.21874 16.221926,16.765362 0 0 1 79.425342,89.453373 16.221926,16.765362 0 0 1 95.647272,72.688003 16.221926,16.765362 0 0 1 111.86921,89.453373 Z" />
    <path
       style="fill:none;fill-rule:evenodd;stroke:#000000;stroke-width:3;stroke-linecap:butt;stroke-linejoin:miter;stroke-dasharray:none;stroke-opacity:1"
       d="m 85.199568,102.27859 -23.091031,28.3457"
       id="path2408"
       inkscape:connector-type="polyline"
       inkscape:connector-curvature="0"
       inkscape:connection-start="#path844-7"
       inkscape:connection-end="#path844-3" />
    <path
       style="fill:none;fill-rule:evenodd;stroke:#000000;stroke-width:3;stroke-linecap:butt;stroke-linejoin:miter;stroke-dasharray:none;stroke-opacity:1"
       d="m 106.64946,101.77308 8.35555,9.35613"
       id="path2410"
       inkscape:connector-type="polyline"
       inkscape:connector-curvature="0"
       inkscape:connection-start="#path844-7"
       inkscape:connection-end="#path844" />
    <path
       style="fill:none;fill-rule:evenodd;stroke:#000000;stroke-width:3;stroke-linecap:butt;stroke-linejoin:miter;stroke-dasharray:none;stroke-opacity:1"
       d="m 122.89728,139.90306 -3.76163,19.90226"
       id="path2412"
       inkscape:connector-type="polyline"
       inkscape:connector-curvature="0"
       inkscape:connection-start="#path844"
       inkscape:connection-end="#path844-6" />
    <path
       style="fill:none;fill-rule:evenodd;stroke:#000000;stroke-width:3;stroke-linecap:butt;stroke-linejoin:miter;stroke-dasharray:none;stroke-opacity:1"
       d="M 101.47743,168.84348 66.209131,150.86549"
       id="path2414"
       inkscape:connector-type="polyline"
       inkscape:connector-curvature="0"
       inkscape:connection-start="#path844-6"
       inkscape:connection-end="#path844-3" />
    <path
       style="fill:none;fill-rule:evenodd;stroke:#000000;stroke-width:3;stroke-linecap:butt;stroke-linejoin:miter;stroke-dasharray:none;stroke-opacity:1"
       d="m 99.472051,105.74576 12.728899,54.22131"
       id="path2418"
       inkscape:connector-type="polyline"
       inkscape:connector-curvature="0"
       inkscape:connection-start="#path844-7"
       inkscape:connection-end="#path844-6" />
    <path
       style="fill:none;fill-rule:evenodd;stroke:#000000;stroke-width:3;stroke-linecap:butt;stroke-linejoin:miter;stroke-dasharray:none;stroke-opacity:1"
       d="M 67.359418,139.22629 110.3086,127.67214"
       id="path2420"
       inkscape:connector-type="polyline"
       inkscape:connector-curvature="0"
       inkscape:connection-start="#path844-3"
       inkscape:connection-end="#path844" />
    <text
       xml:space="preserve"
       style="font-size:14.1111px;fill:#000000;fill-opacity:1;stroke:none;stroke-width:3;stroke-dasharray:3, 6;stroke-dashoffset:0;stroke-opacity:1"
       x="91.520454"
       y="94.264069"
       id="text3564"><tspan
         sodipodi:role="line"
         id="tspan3562"
         style="font-style:normal;font-variant:normal;font-weight:bold;font-stretch:normal;font-size:14.1111px;font-family:sans-serif;-inkscape-font-specification:'sans-serif Bold';stroke-width:3;stroke-dasharray:3, 6;stroke-dashoffset:0"
         x="91.520454"
         y="94.264069">1</tspan></text>
    <text
       xml:space="preserve"
       style="font-size:14.1111px;line-height:0;fill:#000000;fill-opacity:1;stroke:none;stroke-width:1.048;stroke-dasharray:1.048, 2.096;stroke-dashoffset:0;stroke-opacity:1"
       x="123.2155"
       y="128.54053"
       id="text3568"><tspan
         sodipodi:role="line"
         id="tspan3566"
         style="font-style:normal;font-variant:normal;font-weight:bold;font-stretch:normal;font-size:14.1111px;font-family:sans-serif;-inkscape-font-specification:'sans-serif Bold';stroke-width:1.048"
         x="123.2155"
         y="128.54053">2</tspan></text>
    <text
       xml:space="preserve"
       style="font-size:14.1111px;fill:#000000;fill-opacity:1;stroke:none;stroke-width:1.048;stroke-dasharray:1.048, 2.096;stroke-dashoffset:0;stroke-opacity:1"
       x="47.958031"
       y="147.94121"
       id="text3572"><tspan
         sodipodi:role="line"
         id="tspan3570"
         style="font-style:normal;font-variant:normal;font-weight:bold;font-stretch:normal;font-size:14.1111px;font-family:sans-serif;-inkscape-font-specification:'sans-serif Bold';stroke-width:1.048"
         x="47.958031"
         y="147.94121">3</tspan></text>
    <text
       xml:space="preserve"
       style="font-size:14.1111px;fill:#000000;fill-opacity:1;stroke:none;stroke-width:1.048;stroke-dasharray:1.048, 2.096;stroke-dashoffset:0;stroke-opacity:1"
       x="112.1502"
       y="180.78952"
       id="text3576"><tspan
         sodipodi:role="line"
         id="tspan3574"
         style="font-style:normal;font-variant:normal;font-weight:bold;font-stretch:normal;font-size:14.1111px;font-family:sans-serif;-inkscape-font-specification:'sans-serif Bold';stroke-width:1.048"
         x="112.1502"
         y="180.78952">4</tspan></text>
  </g>
</svg>
